<svg width="24" height="24" viewBox="0 0 24 24" fill="none" xmlns="http://www.w3.org/2000/svg">
<path d="M23.1562 6.04688C23.6719 6.32812 24 6.84375 24 7.40625C24 8.29688 23.25 9 22.3594 9H1.59375C0.703125 9 0 8.29688 0 7.40625C0 6.84375 0.28125 6.32812 0.796875 6.04688L11.4375 0.140625C11.7656 0 12.1875 0 12.5156 0.140625L23.1562 6.04688ZM10.5 6C10.5 5.20312 11.1562 4.5 12 4.5C12.7969 4.5 13.5 5.20312 13.5 6C13.5 6.28125 13.4062 6.5625 13.2656 6.75H19.8281L12 2.4375L4.125 6.75H10.6875C10.5469 6.5625 10.5 6.28125 10.5 6ZM3 10.5H5.25V18H8.25V10.5H10.5V18H13.5V10.5H15.75V18H18.75V10.5H21V18H21.375C21.9844 18 22.5 18.5156 22.5 19.125C22.5 19.7812 21.9844 20.25 21.375 20.25H3C2.34375 20.25 1.875 19.7812 1.875 19.125C1.875 18.5156 2.34375 18 3 18V10.5ZM22.875 21.75C23.4844 21.75 24 22.2656 24 22.875C24 23.5312 23.4844 24 22.875 24H1.5C0.84375 24 0.375 23.5312 0.375 22.875C0.375 22.2656 0.84375 21.75 1.5 21.75H22.875Z" fill="white"/>
</svg>