<svg width="32" height="32" viewBox="0 0 32 32" fill="none" xmlns="http://www.w3.org/2000/svg">
<path d="M14.6875 20.75C14.3125 21.125 13.625 21.125 13.25 20.75L9.25 16.75C8.875 16.375 8.875 15.6875 9.25 15.3125C9.625 14.9375 10.3125 14.9375 10.6875 15.3125L14 18.625L21.25 11.3125C21.625 10.9375 22.3125 10.9375 22.6875 11.3125C23.0625 11.6875 23.0625 12.375 22.6875 12.75L14.6875 20.75ZM32 16C32 24.875 24.8125 32 16 32C7.125 32 0 24.875 0 16C0 7.1875 7.125 0 16 0C24.8125 0 32 7.1875 32 16ZM16 2C8.25 2 2 8.3125 2 16C2 23.75 8.25 30 16 30C23.6875 30 30 23.75 30 16C30 8.3125 23.6875 2 16 2Z" fill="#1EA855"/>
</svg>